<svg id="Construsostenible_Arquitectura_y_Concreto" xmlns="http://www.w3.org/2000/svg" width="215" height="119.789" viewBox="0 0 215 119.789">
  <g id="Grupo_3191" data-name="Grupo 3191" transform="translate(146.076 3.103)">
    <g id="Grupo_3190" data-name="Grupo 3190">
      <path id="Trazado_3856" data-name="Trazado 3856" d="M548.425,163.283,558.883,138.6h-1.429l-9.762,23.254L507.6,254.763l1.185.523,17.85-40.685h27.681l6.415,15.793h15.793Zm-16.142,38,8.785-20.639,7.774,20.639Z" transform="translate(-507.6 -138.6)" fill="#003e5f"/>
    </g>
  </g>
  <g id="Grupo_3197" data-name="Grupo 3197" transform="translate(0 0)">
    <g id="Grupo_3192" data-name="Grupo 3192" transform="translate(17.676 73.7)">
      <path id="Trazado_3857" data-name="Trazado 3857" d="M139.3,359.752v-.07a7.15,7.15,0,0,1,12.1-5.194.906.906,0,0,1,.314.732.974.974,0,0,1-.976.976,1.023,1.023,0,0,1-.662-.244,5.263,5.263,0,0,0-3.765-1.639,5.079,5.079,0,0,0-4.916,5.334v.07a5.147,5.147,0,0,0,5.055,5.334,5.575,5.575,0,0,0,3.835-1.674.8.8,0,0,1,.593-.279.985.985,0,0,1,.941.941.817.817,0,0,1-.279.628,6.922,6.922,0,0,1-5.195,2.2A7.016,7.016,0,0,1,139.3,359.752Z" transform="translate(-139.3 -348.526)" fill="#727176"/>
      <path id="Trazado_3858" data-name="Trazado 3858" d="M177.1,359.752v-.07a7.164,7.164,0,0,1,14.329-.07v.07a7.157,7.157,0,0,1-7.217,7.182A7.031,7.031,0,0,1,177.1,359.752Zm12.237,0v-.07a5.183,5.183,0,0,0-5.09-5.369,5.075,5.075,0,0,0-5.02,5.334v.07a5.153,5.153,0,0,0,5.09,5.334A5.065,5.065,0,0,0,189.337,359.752Z" transform="translate(-163.922 -348.526)" fill="#727176"/>
      <path id="Trazado_3859" data-name="Trazado 3859" d="M224.3,353.785a1.042,1.042,0,0,1,1.011-1.046,1.027,1.027,0,0,1,1.046,1.046v1.5a5.184,5.184,0,0,1,4.707-2.684c3.312,0,5.264,2.231,5.264,5.508v7.635a1.029,1.029,0,1,1-2.057,0v-7.112c0-2.545-1.395-4.149-3.8-4.149a4.049,4.049,0,0,0-4.114,4.323v6.973a1,1,0,0,1-1.011,1.046,1.027,1.027,0,0,1-1.046-1.046Z" transform="translate(-194.667 -348.591)" fill="#727176"/>
      <path id="Trazado_3860" data-name="Trazado 3860" d="M263.884,365.216a.945.945,0,0,1-.384-.732.872.872,0,0,1,.906-.872.756.756,0,0,1,.488.174,7.777,7.777,0,0,0,4.358,1.464c1.639,0,2.859-.837,2.859-2.2v-.07c0-1.395-1.639-1.917-3.417-2.406-2.161-.627-4.532-1.36-4.532-3.87v-.07c0-2.371,1.952-3.939,4.672-3.939a9.423,9.423,0,0,1,4.393,1.185.967.967,0,0,1,.488.837.872.872,0,0,1-.906.872,1.448,1.448,0,0,1-.453-.1,7.5,7.5,0,0,0-3.591-1.081c-1.639,0-2.65.837-2.65,1.987v.07c0,1.29,1.708,1.813,3.521,2.371,2.127.628,4.428,1.464,4.428,3.939v.07c0,2.615-2.162,4.114-4.881,4.114A9.263,9.263,0,0,1,263.884,365.216Z" transform="translate(-220.2 -348.656)" fill="#727176"/>
      <path id="Trazado_3861" data-name="Trazado 3861" d="M297.622,355.5v-8.3h-1.116a.906.906,0,0,1,0-1.813h1.116v-3.242a1.019,1.019,0,0,1,1.011-1.046,1.072,1.072,0,0,1,1.046,1.046v3.242h3.556a.954.954,0,0,1,.941.906.931.931,0,0,1-.941.906h-3.556v8.018a2.045,2.045,0,0,0,2.3,2.3,6.246,6.246,0,0,0,1.255-.174.858.858,0,0,1,.279,1.673,5.1,5.1,0,0,1-2.022.383C299.3,359.368,297.622,358.287,297.622,355.5Z" transform="translate(-241.109 -341.1)" fill="#727176"/>
      <path id="Trazado_3862" data-name="Trazado 3862" d="M325.6,353.981a1.042,1.042,0,0,1,1.011-1.046,1.027,1.027,0,0,1,1.046,1.046v2.58A5.649,5.649,0,0,1,332.4,352.9a.979.979,0,0,1,1.011,1.046,1.052,1.052,0,0,1-.906,1.046c-2.65.314-4.846,2.3-4.846,6.275v4.672a1.029,1.029,0,1,1-2.057,0Z" transform="translate(-260.65 -348.786)" fill="#727176"/>
      <path id="Trazado_3863" data-name="Trazado 3863" d="M363.293,365.9a1.012,1.012,0,1,1-2.022,0V364.44a5.225,5.225,0,0,1-4.706,2.684c-3.312,0-5.264-2.231-5.264-5.508v-7.635a1,1,0,0,1,1.011-1.046,1.049,1.049,0,0,1,1.046,1.046v7.112c0,2.545,1.395,4.149,3.8,4.149a4.069,4.069,0,0,0,4.114-4.323v-6.973a1,1,0,0,1,1.011-1.046,1.02,1.02,0,0,1,1.011,1.046Z" transform="translate(-277.391 -348.786)" fill="#727176"/>
    </g>
    <g id="Grupo_3193" data-name="Grupo 3193" transform="translate(0 95.42)">
      <path id="Trazado_3864" data-name="Trazado 3864" d="M89.367,431.078a1.629,1.629,0,0,1-.767-1.394,1.578,1.578,0,0,1,1.6-1.6,1.528,1.528,0,0,1,.8.209,7.706,7.706,0,0,0,3.87,1.29c1.185,0,1.708-.418,1.708-1.081v-.07c0-.872-1.395-1.185-2.963-1.639-1.987-.593-4.253-1.5-4.253-4.288v-.07c0-2.894,2.336-4.532,5.229-4.532a9.99,9.99,0,0,1,4.428,1.081,1.627,1.627,0,0,1-.7,3.1,1.74,1.74,0,0,1-.732-.174A7.644,7.644,0,0,0,94.527,421c-.976,0-1.5.418-1.5.976v.07c0,.8,1.36,1.185,2.894,1.708,1.987.662,4.323,1.639,4.323,4.219v.07c0,3.173-2.371,4.6-5.439,4.6A9.7,9.7,0,0,1,89.367,431.078Z" transform="translate(-88.6 -412.845)" fill="#a3bd31"/>
      <path id="Trazado_3865" data-name="Trazado 3865" d="M123.6,425.4v-.07a7.506,7.506,0,0,1,7.74-7.426,7.389,7.389,0,0,1,7.67,7.356v.07a7.506,7.506,0,0,1-7.74,7.426A7.41,7.41,0,0,1,123.6,425.4Zm11.435,0v-.07a3.788,3.788,0,0,0-3.765-3.94,3.653,3.653,0,0,0-3.7,3.87v.07a3.788,3.788,0,0,0,3.765,3.94A3.653,3.653,0,0,0,135.035,425.4Z" transform="translate(-111.398 -412.845)" fill="#a3bd31"/>
      <path id="Trazado_3866" data-name="Trazado 3866" d="M169.167,431.078a1.629,1.629,0,0,1-.767-1.394,1.578,1.578,0,0,1,1.6-1.6,1.528,1.528,0,0,1,.8.209,7.706,7.706,0,0,0,3.87,1.29c1.185,0,1.708-.418,1.708-1.081v-.07c0-.872-1.395-1.185-2.963-1.639-1.987-.593-4.253-1.5-4.253-4.288v-.07c0-2.894,2.336-4.532,5.229-4.532a9.991,9.991,0,0,1,4.428,1.081,1.627,1.627,0,0,1-.7,3.1,1.74,1.74,0,0,1-.732-.174,7.644,7.644,0,0,0-3.068-.906c-.976,0-1.5.418-1.5.976v.07c0,.8,1.36,1.185,2.894,1.708,1.987.662,4.323,1.639,4.323,4.219v.07c0,3.173-2.371,4.6-5.439,4.6A9.62,9.62,0,0,1,169.167,431.078Z" transform="translate(-140.579 -412.845)" fill="#a3bd31"/>
      <path id="Trazado_3867" data-name="Trazado 3867" d="M202.983,421.75v-6.763h-.139a1.743,1.743,0,1,1,0-3.486h.139v-1.778a2.022,2.022,0,0,1,4.044,0V411.5H208.8a1.743,1.743,0,0,1,0,3.486h-1.778v6.1c0,.941.383,1.394,1.29,1.394.139,0,.383-.035.488-.035a1.674,1.674,0,0,1,1.673,1.673,1.611,1.611,0,0,1-1.046,1.5,6.136,6.136,0,0,1-2.3.383C204.656,426.038,202.983,425.027,202.983,421.75Z" transform="translate(-161.879 -406.201)" fill="#a3bd31"/>
      <path id="Trazado_3868" data-name="Trazado 3868" d="M235.961,432.752A7.131,7.131,0,0,1,228.5,425.4v-.07c0-4.079,2.894-7.426,7.042-7.426a6.733,6.733,0,0,1,6.868,6.868,1.85,1.85,0,0,1-1.883,1.952h-8.018A3.283,3.283,0,0,0,236,429.509a4.688,4.688,0,0,0,2.859-.941,1.491,1.491,0,0,1,.976-.314,1.549,1.549,0,0,1,1.569,1.6,1.581,1.581,0,0,1-.523,1.185A7.293,7.293,0,0,1,235.961,432.752Zm2.615-8.576c-.244-1.813-1.29-3.033-3-3.033-1.673,0-2.754,1.185-3.068,3.033Z" transform="translate(-179.727 -412.845)" fill="#a3bd31"/>
      <path id="Trazado_3869" data-name="Trazado 3869" d="M272.7,420.027a2.022,2.022,0,1,1,4.044,0v.174a5.1,5.1,0,0,1,4.184-2.3c3.068,0,4.846,2.022,4.846,5.3v7.356a2.022,2.022,0,0,1-4.044,0v-6.1c0-1.917-.906-2.894-2.44-2.894s-2.51.976-2.51,2.894v6.1a2.022,2.022,0,1,1-4.044,0V420.027Z" transform="translate(-208.517 -412.845)" fill="#a3bd31"/>
      <path id="Trazado_3870" data-name="Trazado 3870" d="M315.5,405.383c0-1.185.976-1.883,2.266-1.883a2.008,2.008,0,0,1,2.266,1.883v.07a2.3,2.3,0,0,1-4.532,0Zm.244,5.264a2.022,2.022,0,0,1,4.044,0v10.529a2.022,2.022,0,0,1-4.044,0Z" transform="translate(-236.396 -403.465)" fill="#a3bd31"/>
      <path id="Trazado_3871" data-name="Trazado 3871" d="M334.1,405.422a2.022,2.022,0,1,1,4.044,0v5.334a5.214,5.214,0,0,1,4.428-2.3c3.312,0,6.485,2.615,6.485,7.356v.07c0,4.776-3.1,7.356-6.485,7.356a5.393,5.393,0,0,1-4.428-2.127v.035a2.022,2.022,0,0,1-4.044-.035Zm10.947,10.459v-.07a3.641,3.641,0,0,0-3.486-3.94c-1.883,0-3.451,1.569-3.451,3.94v.07c0,2.371,1.569,3.94,3.451,3.94A3.621,3.621,0,0,0,345.047,415.881Z" transform="translate(-248.511 -403.4)" fill="#a3bd31"/>
      <path id="Trazado_3872" data-name="Trazado 3872" d="M381.6,405.422a2.022,2.022,0,1,1,4.044,0V421.11a2.022,2.022,0,1,1-4.044,0Z" transform="translate(-279.452 -403.4)" fill="#a3bd31"/>
      <path id="Trazado_3873" data-name="Trazado 3873" d="M404.961,432.752A7.131,7.131,0,0,1,397.5,425.4v-.07c0-4.079,2.894-7.426,7.042-7.426a6.733,6.733,0,0,1,6.868,6.868,1.85,1.85,0,0,1-1.883,1.952h-8.018A3.283,3.283,0,0,0,405,429.509a4.688,4.688,0,0,0,2.859-.941,1.491,1.491,0,0,1,.976-.314,1.549,1.549,0,0,1,1.569,1.6,1.581,1.581,0,0,1-.523,1.185A7.359,7.359,0,0,1,404.961,432.752Zm2.58-8.576c-.244-1.813-1.29-3.033-3-3.033-1.673,0-2.754,1.185-3.068,3.033Z" transform="translate(-289.808 -412.845)" fill="#a3bd31"/>
    </g>
    <g id="Grupo_3196" data-name="Grupo 3196" transform="translate(29.703 0)">
      <path id="Trazado_3874" data-name="Trazado 3874" d="M221.806,151.489a.863.863,0,0,0,.872-.872v-7.809h2.58a.863.863,0,0,0,.872-.872v-3.486a.128.128,0,0,0-.035-.1,1.512,1.512,0,0,0-.035-.174.264.264,0,0,0-.07-.139.84.84,0,0,0-.349-.349c-.035-.035-.1-.035-.139-.07-.035,0-.035-.035-.07-.035l-33.12-7.844c-.07,0-.139-.035-.209-.035h-3.486a1.019,1.019,0,0,0-.314.07c-.035,0-.035,0-.07.035s-.035,0-.07.035l-13.945,7.844-.1.1c-.035.035-.07.035-.07.07a1.059,1.059,0,0,0-.174.244h0a1.017,1.017,0,0,0-.07.314v3.521a.863.863,0,0,0,.872.872h12.2V167.77l-3.242,3.242a.84.84,0,0,0-.244.628v13.945h-1.743v5.229h17.431v-5.229h-1.743V171.64a1,1,0,0,0-.244-.628l-3.242-3.242V142.808h21.859v7.809a.863.863,0,0,0,.872.872h1.743v5.334c0,.488,1.743.837,1.743-.767v-4.6h1.743Zm2.615-10.424h-1.743v-1.743h1.708v1.743Zm-3.486,0h-3.486v-1.743h3.486Zm-3.486-3.486h-24.4v-5.857l24.788,5.857ZM189.907,185.55l2.266-2.266v2.266Zm-1.22-17.431V167.6l3.138,3.138-3.138,3.138Zm.349,7.844,3.138-3.138v6.24Zm2.754,5.229-3.138,3.138v-6.24Zm.383-13.074v.523l-3.138-3.138,3.138-3.138Zm-3.486-4.706v-6.24l3.138,3.138Zm.349-8.367,3.138-11.888v15.026Zm3.138-14.364-.349.349h-3.138v-1.743h3.486Zm-.872-9.2v6.1h-1.743v-6.1Zm-3.486.593v5.473h-9.762Zm-12.2,8.995v-1.743h11.33v1.743Zm14.433,1.743-1.395,7.949v-7.949ZM185.2,171.954l1.743-1.743v15.34H185.2Zm12.2,17.083H183.457v-1.743H197.4Zm-1.743-17.083v13.6h-1.743v-15.34Zm-1.743-30.889v-1.743h21.789v1.743Zm27.019,1.743v3.451h-3.486v-3.451Zm-3.486,6.938V148h3.486v1.743Z" transform="translate(-173.8 -129.7)" fill="#727176"/>
      <g id="Grupo_3195" data-name="Grupo 3195" transform="translate(45.287 27.646)">
        <g id="Grupo_3194" data-name="Grupo 3194">
          <path id="Trazado_3875" data-name="Trazado 3875" d="M303.7,209" transform="translate(-303.7 -209)" fill="#87bfdb"/>
        </g>
      </g>
      <path id="Trazado_3876" data-name="Trazado 3876" d="M274.328,207.1c-9.1,0-15.828,6.8-15.828,15.165v.1c0,8.367,6.694,15.061,15.723,15.061,9.1,0,15.828-6.8,15.828-15.165v-.1C290.051,213.794,283.357,207.1,274.328,207.1Zm3.242,23.323c-5.369,3.312-10.529-1.255-12.516-3.451,2.615-6.9,10.842-4.009,10.842-4.009-6.8-3.033-9.518.279-11.644,2.371,1.116-7.7,5.3-10.145,9.727-8.681,8.193,2.719,11.121-2.58,11.121-2.58S284.647,226.031,277.57,230.423Z" transform="translate(-228.971 -180.116)" fill="#a3bd31"/>
    </g>
  </g>
</svg>
